<?xml version="1.0" standalone="no"?>
<!DOCTYPE svg PUBLIC "-//W3C//DTD SVG 20010904//EN"
 "http://www.w3.org/TR/2001/REC-SVG-20010904/DTD/svg10.dtd">
<svg version="1.0" xmlns="http://www.w3.org/2000/svg"
 width="48.000000pt" height="48.000000pt" viewBox="0 0 48.000000 48.000000"
 preserveAspectRatio="xMidYMid meet">

<g transform="translate(0.000000,48.000000) scale(0.100000,-0.100000)"
fill="#000000" stroke="none">
<path d="M152 395 c-11 -14 -25 -25 -31 -25 -6 0 -11 -5 -11 -12 0 -6 -8 -20
-17 -31 -13 -15 -15 -21 -5 -24 7 -3 12 -24 12 -57 0 -48 -2 -53 -34 -70 -36
-19 -49 -45 -36 -67 6 -8 9 -5 12 12 2 18 17 31 62 53 48 23 79 30 170 36
l111 8 -120 -2 c-66 -2 -128 -7 -137 -11 -16 -6 -18 0 -18 57 0 59 3 68 34
104 l34 39 51 -55 c27 -30 50 -52 51 -48 0 8 -89 111 -101 116 -4 2 -16 -9
-27 -23z"/>
<path d="M237 406 c-4 -10 0 -12 14 -9 10 3 16 9 13 14 -8 13 -21 11 -27 -5z"/>
<path d="M304 348 c21 -27 40 -48 43 -48 8 0 -34 54 -58 75 -13 11 -6 -1 15
-27z"/>
</g>
</svg>
